<?xml version="1.0" standalone="no"?>
<!DOCTYPE svg PUBLIC "-//W3C//DTD SVG 20010904//EN"
 "http://www.w3.org/TR/2001/REC-SVG-20010904/DTD/svg10.dtd">
<svg version="1.0" xmlns="http://www.w3.org/2000/svg"
 width="626.000000pt" height="626.000000pt" viewBox="0 0 626.000000 626.000000"
 preserveAspectRatio="xMidYMid meet">
<metadata>
Created by potrace 1.16, written by Peter Selinger 2001-2019
</metadata>
<g transform="translate(0.000000,626.000000) scale(0.100000,-0.100000)"
fill="#000000" stroke="none">
<path d="M3122 6253 l3128 -3 3 -3128 2 -3127 3 3133 2 3132 -3132 -2 -3133
-3 3127 -2z"/>
<path d="M2737 5394 c-12 -13 -8 -34 8 -34 8 0 15 -7 15 -15 0 -8 5 -15 10
-15 6 0 10 -7 10 -15 0 -8 5 -15 10 -15 6 0 18 -17 28 -37 9 -21 23 -42 30
-46 8 -6 11 -18 8 -32 -6 -22 15 -77 53 -140 10 -16 16 -33 14 -38 -2 -4 3
-10 12 -13 13 -5 15 -15 11 -38 -5 -28 -1 -36 30 -64 21 -19 34 -38 31 -46 -3
-8 1 -17 10 -20 9 -4 13 -13 9 -21 -3 -8 -9 -22 -12 -30 -4 -10 0 -15 10 -15
12 0 16 -10 16 -39 0 -25 5 -41 15 -44 12 -5 12 -10 0 -34 -8 -15 -15 -33 -15
-39 0 -14 -63 -84 -75 -84 -6 0 -15 -11 -21 -25 l-12 -24 47 6 c25 3 50 10 55
14 16 14 48 10 68 -8 11 -9 31 -17 46 -18 20 0 28 -6 30 -22 2 -13 8 -23 13
-23 5 0 9 -7 9 -15 0 -8 6 -15 14 -15 20 0 86 -40 86 -51 0 -5 10 -9 23 -9 13
0 27 -4 33 -10 6 -6 20 -6 39 0 17 5 52 12 78 15 39 5 50 11 57 31 5 13 16 27
24 30 18 7 58 72 51 84 -3 4 4 10 14 13 18 4 23 28 9 43 -4 3 -4 20 -1 38 3
18 -2 54 -11 80 -9 25 -16 62 -16 81 0 23 -7 39 -21 49 -16 11 -19 20 -14 33
5 10 7 22 6 26 -3 16 -10 52 -10 60 -1 4 -7 7 -13 7 -9 0 -13 16 -14 45 -1 32
-7 52 -22 68 -12 13 -22 30 -22 37 0 21 -32 104 -44 112 -5 3 -28 6 -52 6 -62
-1 -136 22 -142 44 -2 10 -12 18 -22 18 -21 0 -117 28 -142 41 -10 5 -23 9
-30 9 -6 0 -24 11 -38 25 -24 23 -79 43 -180 65 -19 4 -49 11 -65 15 -17 3
-33 3 -38 -1z"/>
<path d="M4297 4401 c-10 -3 -24 -18 -30 -31 -9 -18 -21 -25 -41 -25 -21 -1
-31 -7 -37 -23 -6 -15 -17 -22 -34 -22 -54 0 -190 -42 -210 -65 -5 -7 -29 -14
-52 -17 -23 -3 -56 -13 -74 -22 -18 -9 -38 -16 -46 -16 -7 0 -21 -4 -31 -8
-97 -48 -172 -70 -259 -77 -19 -1 -38 -6 -42 -11 -6 -9 -111 -45 -141 -49 -8
-1 -28 -7 -45 -14 -16 -7 -46 -15 -65 -18 -19 -2 -42 -7 -50 -11 -8 -3 -19 -6
-25 -7 -45 -6 -102 -19 -110 -25 -5 -4 -26 -11 -45 -15 -19 -4 -46 -13 -60
-21 -27 -15 -164 -53 -218 -61 -18 -3 -35 -9 -38 -14 -3 -5 -15 -9 -28 -9 -12
0 -26 -4 -32 -10 -5 -5 -24 -10 -42 -12 -18 -1 -40 -10 -49 -20 -9 -10 -28
-18 -42 -18 -49 0 -322 -72 -348 -92 -7 -5 -34 -11 -60 -12 -26 -2 -55 -5 -63
-9 -17 -6 -68 -16 -125 -23 -22 -3 -49 -9 -60 -14 -60 -25 -84 -31 -107 -25
-15 4 -29 2 -32 -4 -4 -6 -16 -11 -27 -11 -11 0 -22 -7 -25 -15 -7 -17 -35
-20 -50 -5 -7 7 -19 4 -38 -11 -23 -18 -32 -20 -51 -11 -19 9 -37 7 -84 -9
-34 -12 -61 -27 -61 -34 0 -7 16 -23 35 -36 19 -13 35 -30 35 -36 0 -7 6 -13
13 -13 6 0 25 -11 41 -25 17 -14 42 -25 58 -25 21 0 31 -6 35 -19 6 -23 71
-54 109 -51 38 3 92 -18 104 -40 22 -41 154 -30 184 15 10 14 25 22 46 23 17
0 38 6 46 13 7 6 23 9 35 6 12 -3 32 1 45 10 13 8 31 12 40 9 9 -3 21 -3 27 1
13 8 19 10 62 19 47 10 85 28 85 41 0 7 24 15 60 19 33 4 63 10 65 15 3 4 37
11 75 15 39 4 73 11 76 15 3 5 17 9 31 9 13 0 36 9 50 20 14 11 38 20 54 20
15 0 41 5 56 11 15 6 38 15 51 20 12 5 32 13 45 19 12 5 54 16 92 25 80 19
135 36 150 46 6 4 26 10 46 14 32 6 39 4 56 -22 46 -65 44 -198 -3 -271 -8
-13 -12 -31 -9 -42 3 -10 1 -21 -5 -25 -5 -3 -10 -15 -10 -25 0 -10 -6 -20
-12 -22 -7 -3 -14 -16 -15 -29 -2 -35 -25 -93 -46 -113 -9 -10 -17 -22 -17
-28 0 -26 -36 -88 -51 -88 -21 0 -149 58 -149 68 0 4 -22 17 -50 30 -27 13
-50 27 -50 32 0 5 -15 9 -33 8 -18 -1 -44 5 -57 12 -27 15 -30 15 -100 25 -25
3 -67 10 -95 15 -27 5 -90 11 -138 13 -80 4 -89 2 -99 -16 -8 -16 -7 -22 8
-30 10 -6 29 -22 43 -36 40 -40 113 -91 123 -85 4 3 8 1 8 -5 0 -10 100 -61
119 -61 6 0 11 -6 11 -12 0 -7 14 -21 31 -31 17 -9 33 -26 36 -37 3 -11 9 -20
14 -20 20 0 67 -59 73 -93 4 -22 14 -38 25 -42 23 -7 55 -71 53 -104 -1 -13 3
-30 9 -38 12 -14 -8 -44 -59 -86 -12 -10 -20 -22 -17 -27 9 -15 -6 -38 -30
-44 -16 -4 -26 -16 -30 -37 -4 -17 -19 -45 -34 -62 -16 -18 -33 -42 -40 -54
-6 -13 -18 -23 -25 -23 -7 0 -18 -11 -24 -25 -6 -14 -16 -25 -21 -25 -6 0 -17
-15 -26 -33 -8 -18 -25 -37 -37 -42 -12 -6 -27 -26 -34 -46 -6 -20 -23 -47
-35 -61 -13 -13 -35 -39 -49 -57 -14 -18 -35 -37 -47 -42 -13 -5 -23 -15 -23
-24 0 -8 -6 -15 -13 -15 -18 0 -47 -32 -47 -51 0 -22 -56 -79 -89 -90 -16 -6
-37 -22 -46 -36 -9 -13 -32 -31 -51 -39 -25 -10 -36 -23 -40 -42 -5 -23 -14
-31 -50 -41 -25 -8 -44 -19 -44 -27 0 -8 -11 -19 -24 -24 -13 -5 -28 -16 -33
-25 -5 -9 -22 -17 -37 -19 -18 -2 -34 -13 -45 -29 -8 -15 -21 -27 -28 -27 -7
0 -13 -4 -13 -9 0 -5 -8 -11 -17 -15 -10 -3 -40 -19 -68 -35 -27 -16 -56 -30
-63 -30 -7 -1 -20 -7 -27 -15 -8 -7 -36 -16 -64 -20 -27 -4 -51 -12 -53 -18
-3 -8 -43 -14 -111 -18 -58 -3 -109 -9 -112 -12 -4 -3 15 -13 42 -22 38 -12
79 -15 198 -11 179 5 306 15 320 24 6 4 30 13 55 20 25 8 59 20 77 27 17 8 35
14 41 14 5 0 29 9 53 20 24 11 58 20 75 20 17 0 37 7 44 15 7 8 18 15 24 15
17 0 66 24 66 32 0 4 21 10 48 13 26 4 52 12 57 19 11 12 50 34 125 72 25 12
51 32 58 43 7 12 18 21 25 21 6 0 46 29 87 65 41 36 80 65 85 65 6 0 23 17 39
38 17 20 36 41 43 45 7 4 13 14 13 21 0 8 18 30 40 50 22 20 40 39 40 43 1 13
37 53 48 53 5 0 18 12 28 28 10 15 24 33 31 40 7 7 13 21 13 31 0 10 14 30 30
44 17 15 30 34 30 42 0 8 4 15 9 15 5 0 12 8 15 18 18 53 116 120 116 78 0 -8
7 -16 15 -20 8 -3 20 -17 25 -31 5 -14 15 -25 21 -25 18 0 64 -43 64 -60 0 -8
17 -23 38 -32 20 -10 37 -23 37 -28 0 -6 11 -15 25 -22 13 -6 22 -15 19 -19
-2 -4 4 -13 15 -18 11 -6 23 -20 26 -31 3 -11 13 -20 22 -20 17 0 84 -68 111
-113 9 -15 22 -27 29 -27 7 0 13 -4 13 -9 0 -15 60 -101 71 -101 5 0 9 -6 9
-14 0 -7 14 -19 30 -26 17 -7 30 -18 30 -25 0 -6 21 -29 47 -51 56 -47 93 -86
93 -97 0 -5 10 -7 23 -4 17 5 26 0 40 -24 9 -17 17 -41 17 -53 0 -25 23 -50
57 -60 12 -4 38 -25 57 -46 20 -22 44 -40 55 -40 10 0 26 -11 35 -25 13 -20
25 -25 56 -25 22 0 40 -4 40 -8 0 -11 71 -45 78 -37 3 3 16 -4 28 -16 25 -23
91 -42 100 -28 3 5 19 9 36 9 18 0 50 8 72 19 64 29 79 34 115 37 18 2 42 11
52 20 12 11 27 14 44 10 15 -4 40 0 60 9 19 8 50 22 69 30 19 8 52 15 73 15
21 0 44 5 50 11 5 5 43 15 84 20 55 8 77 16 87 31 12 16 22 19 54 15 40 -5 61
2 115 41 24 17 49 24 98 26 73 4 95 17 95 52 0 31 -64 74 -122 81 -24 2 -50 7
-58 10 -8 4 -19 5 -23 4 -4 0 -20 5 -36 14 -16 8 -31 12 -33 9 -11 -10 -128
16 -182 40 -30 14 -68 28 -83 32 -16 4 -33 10 -38 15 -6 4 -35 17 -65 29 -30
12 -72 33 -92 47 -25 17 -43 23 -55 18 -28 -12 -66 -5 -89 16 -14 13 -23 16
-31 8 -12 -12 -110 39 -149 78 -13 12 -36 24 -51 24 -53 3 -58 4 -68 11 -5 3
-26 9 -45 12 -50 8 -100 36 -161 89 -57 50 -68 54 -87 35 -17 -17 -59 8 -65
41 -5 20 -19 32 -69 55 -35 15 -70 32 -78 35 -8 4 -28 29 -45 54 -27 42 -33
46 -58 41 -22 -5 -32 0 -55 26 -63 75 -91 99 -198 171 -60 40 -106 90 -101
109 4 15 -3 24 -29 36 -19 9 -34 22 -34 29 0 7 -13 18 -30 25 -16 7 -30 18
-30 25 0 8 -6 15 -12 18 -10 3 -10 8 -2 18 6 8 11 25 12 39 0 14 10 31 22 39
11 7 20 22 20 32 0 11 4 27 9 37 22 44 40 113 61 240 4 29 13 58 18 65 5 7 14
32 20 57 6 25 15 61 22 80 30 89 30 109 -1 172 -5 10 -9 25 -9 33 0 8 -4 15
-10 15 -5 0 -10 9 -10 19 0 37 -12 50 -60 66 -33 11 -51 23 -56 38 -4 12 -15
29 -26 39 -22 19 -12 30 36 34 18 1 59 13 91 25 33 12 69 24 80 26 11 1 39 5
63 9 23 3 42 9 42 13 0 8 58 34 85 37 124 17 173 26 187 34 10 6 31 10 47 10
16 0 31 6 35 15 3 9 18 15 37 15 18 0 47 5 65 12 25 9 39 9 56 0 33 -16 105
-25 120 -15 7 4 22 9 33 10 11 1 44 7 74 12 30 6 58 8 63 5 5 -3 15 -1 22 5 8
7 18 11 22 10 10 -2 55 14 92 33 13 7 35 25 48 41 20 24 23 38 22 89 -1 46 -6
63 -20 71 -10 7 -18 18 -18 25 0 7 -7 26 -15 41 -11 22 -24 30 -54 35 -27 4
-46 14 -56 30 -8 12 -34 29 -58 36 -72 21 -102 34 -112 46 -14 16 -46 24 -68
15z"/>
</g>
</svg>
